Coordinates
version=1
nRows=16
nColumns=22
inDegrees=yes

Units are S.I. units (second, meters, Newtons, ...)
If the header above contains a line with 'inDegrees', this indicates whether rotational values are in degrees (yes) or radians (no).

endheader
time	pelvis_tilt	pelvis_list	pelvis_rotation	pelvis_tx	pelvis_ty	pelvis_tz	hip_flexion_r	hip_adduction_r	hip_rotation_r	knee_angle_r	ankle_angle_r	subtalar_angle_r	hip_flexion_l	hip_adduction_l	hip_rotation_l	knee_angle_l	ankle_angle_l	subtalar_angle_l	lumbar_extension	lumbar_bending	lumbar_rotation
      2.14000000	      1.49472432	      1.98212626	     68.15899375	     -0.36342896	      0.99568394	      0.02977904	     24.19944564	      0.16198361	     -4.78672212	    -12.42396253	      6.82011006	     11.03733502	     -6.50006533	      5.42113765	     -3.21987725	    -15.98064871	     20.40597406	     -8.19197356	    -14.97194924	     -0.73675190	     -1.90071638
      2.15000000	      1.24743937	      1.94344162	     68.45798845	     -0.36026788	      0.99429045	      0.02370700	     24.30798328	      0.15420322	     -4.95263098	    -11.68815518	      6.96215229	     11.06250512	     -6.78567114	      5.55082684	     -3.01654705	    -16.00932564	     20.60621884	     -8.12502566	    -14.81858562	     -0.92255408	     -1.97463310
      2.16000000	      1.01174601	      1.90216822	     68.77935661	     -0.35708579	      0.99288917	      0.01752909	     24.41982457	      0.14730526	     -5.05081195	    -11.18946519	      7.08103848	     11.08849693	     -7.06629687	      5.65986257	     -2.77862548	    -16.06758888	     20.80059279	     -8.03836910	    -14.66400770	     -1.08935089	     -2.06440032
      2.17000000	      0.79827082	      1.85568825	     69.11237752	     -0.35385388	      0.99150128	      0.01125544	     24.53373945	      0.15643465	     -5.04692477	    -10.93415280	      7.13914863	     11.10005959	     -7.34284447	      5.73514817	     -2.51950614	    -16.15631625	     20.98864857	     -7.93224504	    -14.51028502	     -1.23054094	     -2.15169453
      2.18000000	      0.61996905	      1.80733175	     69.45520058	     -0.35054473	      0.99016559	      0.00486411	     24.63044041	      0.19448684	     -4.91815414	    -10.90294318	      7.09094837	     11.07680215	     -7.62796510	      5.76308545	     -2.24509506	    -16.26844479	     21.17260545	     -7.81429618	    -14.36127629	     -1.33563929	     -2.23026916
      2.19000000	      0.50538556	      1.76401279	     69.80112332	     -0.34713599	      0.98891812	     -0.00165739	     24.69340741	      0.29032938	     -4.62127341	    -11.09045938	      6.92522628	     11.02939006	     -7.93821761	      5.71760326	     -1.96067397	    -16.40873209	     21.35911960	     -7.71822150	    -14.23330191	     -1.37451151	     -2.29099175
      2.20000000	      0.43811173	      1.70709401	     70.20222816	     -0.34366597	      0.98776560	     -0.00831363	     24.74118366	      0.41827381	     -4.26211384	    -11.45727653	      6.54591643	     10.70484214	     -8.23214572	      5.59662296	     -1.62785642	    -16.60336351	     21.50640343	     -7.40072870	    -14.09927625	     -1.36031472	     -2.39081810
      2.21000000	      0.44703752	      1.67317424	     70.59273980	     -0.34006228	      0.98677884	     -0.01515074	     24.70906983	      0.61994644	     -3.74198408	    -11.93288127	      5.95848129	     10.33740577	     -8.58973053	      5.39751067	     -1.31529997	    -16.79303305	     21.64372370	     -7.17317772	    -13.99758511	     -1.27520828	     -2.46117508
      2.22000000	      0.51209204	      1.63476536	     71.00171960	     -0.33639522	      0.98592388	     -0.02213336	     24.64211464	      0.87164659	     -3.16145926	    -12.48222103	      5.14348634	      9.86728981	     -8.94759028	      5.12889957	     -0.97870173	    -17.02492411	     21.74269041	     -6.94050459	    -13.89707086	     -1.12751872	     -2.51701631
      2.23000000	      0.61928384	      1.59051551	     71.41073491	     -0.33266577	      0.98520671	     -0.02926992	     24.55762023	      1.16290310	     -2.56280948	    -13.07475229	      4.12952500	      9.25345920	     -9.31302301	      4.80903791	     -0.64769298	    -17.26628919	     21.80554729	     -6.67759984	    -13.78584161	     -0.92778743	     -2.57840861
      2.24000000	      0.76536517	      1.53355115	     71.81067425	     -0.32891508	      0.98462680	     -0.03651697	     24.47844479	      1.48482460	     -2.02104288	    -13.68980165	      2.96218031	      8.58810139	     -9.65570506	      4.44612633	     -0.31928927	    -17.55440398	     21.81384843	     -6.40823956	    -13.66256863	     -0.67791778	     -2.60247831
      2.25000000	      0.95033294	      1.45656746	     72.19757510	     -0.32519477	      0.98418511	     -0.04386094	     24.42090531	      1.82798528	     -1.58349372	    -14.31899033	      1.73642328	      7.97138039	     -9.95350476	      4.04283198	     -0.00933553	    -17.91208808	     21.75379929	     -6.14840306	    -13.52115288	     -0.36622039	     -2.58363604
      2.26000000	      1.13845326	      1.37909980	     72.54527025	     -0.32147712	      0.98390864	     -0.05131609	     24.39940627	      2.15228222	     -1.27155746	    -15.00264123	      0.53381227	      7.35760889	    -10.25342060	      3.65168163	      0.28513019	    -18.26157584	     21.62715536	     -5.84880199	    -13.36697718	     -0.04329022	     -2.55670052
      2.27000000	      1.35952709	      1.28131868	     72.87168100	     -0.31783264	      0.98377419	     -0.05882009	     24.40603117	      2.47928825	     -1.08333777	    -15.71192111	     -0.53303348	      6.98245821	    -10.48291761	      3.23502558	      0.56341939	    -18.71831716	     21.43857445	     -5.60067642	    -13.20110046	      0.33784318	     -2.47439991
      2.28000000	      1.57647186	      1.19579435	     73.14480571	     -0.31418557	      0.98381754	     -0.06640976	     24.43812879	      2.77399248	     -1.03014399	    -16.50085762	     -1.42751981	      6.60453813	    -10.71319271	      2.84582191	      0.80246440	    -19.18737250	     21.14798044	     -5.26048562	    -13.03909433	      0.71410772	     -2.36388118
      2.29000000	      1.82440721	      1.10163063	     73.38879350	     -0.31058026	      0.98400922	     -0.07406282	     24.47041946	      3.06851126	     -1.08847425	    -17.31694184	     -2.09200883	      6.43761993	    -10.89662142	      2.43820900	      1.02586392	    -19.74035653	     20.82288486	     -4.97607499	    -12.87567310	      1.14100027	     -2.21209664
